<svg xmlns="http://www.w3.org/2000/svg" viewBox="0 0 2671.8 2730.51"><defs><style>.a{fill:#fff;}</style></defs><title>logoblanc</title><path class="a" d="M2380.51,1684.43h0c-4.78-7.6-9.81-15-14.81-22.34a1182.82,1182.82,0,0,0,72.64-409.46C2438.36,597.75,1907.57,67,1252.65,67S67,597.75,67,1252.62c0,615.29,468.66,1121,1068.48,1179.88,3.77,6.41,7.43,12.85,11.42,19.18l18.68-11.76-18.68,11.76c105.41,167.46,264.55,283.64,448.11,327.16a690.72,690.72,0,0,0,159.5,18.68c133.33,0,266-38.59,384.93-113.51,167.93-105.67,285.65-266,331.48-451.39C2517.23,2045.26,2485.14,1850.58,2380.51,1684.43Zm-207.16-319.74c80.19,0,145.53,66.33,145.53,148.1a149.55,149.55,0,0,1-41.48,103.33c-26.44,27.57-63.31,44.75-104.05,44.75-80.52,0-145.65-66.32-145.65-148.09a148.83,148.83,0,0,1,44.06-106A143.87,143.87,0,0,1,2173.35,1364.69ZM1079.83,2024c14.86-210.36,129.52-411.31,328.44-536.52,127.23-80.11,271.18-116.08,413.9-104.85A837.16,837.16,0,0,1,1724,1621c124.93,26.86,219,140.42,219,276.06,0,155.5-123.73,282-275.81,282-140.67,0-257-108.21-273.74-247.48A837,837,0,0,1,1079.83,2024ZM1003,342.56c260.62,0,493.59,118.38,648.15,304.27A806.81,806.81,0,0,1,1631,773c-51.14,211-183.49,392.74-372.61,511.83-138.3,87-288.08,128.86-434.76,128.85-252,0-494.69-123.55-653.89-353.15C229.92,654.31,580.05,342.56,1003,342.56ZM160.59,1185q0-31.42,2.3-62.28c167.17,217.19,409.31,333.51,660.24,333.5,154.4,0,312.15-44,457.74-135.68,198.47-125,337.38-315.89,391.12-537.58a858.15,858.15,0,0,0,16.45-87.87,842.68,842.68,0,0,1,142.55,646c-153.53-13.36-308.51,24.62-445.19,110.67-212.73,133.89-334.52,349.59-348.56,574.93-11.35.46-22.74.78-34.21.78C537.76,2027.46,160.59,1650.31,160.59,1185ZM2430,2222.48c-43.2,174.76-154.37,326-313,425.84-156.91,98.8-338.8,130.61-512.24,89.48-170.06-40.31-317.9-147.26-417.37-301.38q32.41,1.76,65.28,1.81c492.7,0,915.1-300.44,1094.15-728.08C2443.63,1865.83,2473.23,2047.59,2430,2222.48Z" transform="translate(-67 -67)"/><path class="a" d="M1667.25,2136.93c128.84,0,233.65-107.58,233.65-239.84,0-121.14-87.9-221.55-201.62-237.63a846.84,846.84,0,0,1-265.44,249.61C1439.92,2035.77,1542.29,2136.93,1667.25,2136.93Z" transform="translate(-67 -67)"/><path class="a" d="M2507.78,1721.55c0,63.35,51.57,114.66,115.57,114.66,63.61,0,115.44-51.31,115.44-114.66,0-63.2-51.84-114.49-115.44-114.49-64,0-115.57,51.29-115.57,114.49" transform="translate(-67 -67)"/></svg>